<?xml version="1.0" encoding="UTF-8"?>
<svg xmlns="http://www.w3.org/2000/svg" width="36" height="36" viewBox="0 0 36 36">
  <g fill="none" stroke="#000" stroke-width="2.7" stroke-linecap="round" stroke-linejoin="round">
    <path d="M6.5 12V8.5a2 2 0 0 1 2-2H12M24 6.5h3.5a2 2 0 0 1 2 2V12M6.5 24v3.5a2 2 0 0 0 2 2H12M24 29.5h3.5a2 2 0 0 0 2-2V24"/>
    <rect x="11" y="9" width="14" height="18" rx="3" fill="#000" stroke="none"/>
    <path d="M15 14h6M15 18h6M15 22h4" stroke="#fff" stroke-width="2"/>
  </g>
</svg>
